<?xml version="1.0" encoding="utf-8"?><svg xmlns="http://www.w3.org/2000/svg" xmlns:xlink="http://www.w3.org/1999/xlink"><symbol fill="none" viewBox="0 0 51 50" id="anchor" xmlns="http://www.w3.org/2000/svg"><circle cx="25.419" cy="25" r="25" fill="#8940FC"/><path fill-rule="evenodd" clip-rule="evenodd" d="m37.956 28.231-2.37-2.844a.49.49 0 0 0-.73 0l-2.37 2.844a.474.474 0 0 0 .365.777h.754a7.729 7.729 0 0 1-6.44 5.574V22.373h4.265a.474.474 0 0 0 .474-.474V20a.474.474 0 0 0-.474-.474h-4.266v-1.219a3.792 3.792 0 1 0-2.844 0v1.223h-4.265c-.26 0-.471.21-.474.47v1.9c0 .262.213.474.474.474h4.266v12.209a7.73 7.73 0 0 1-6.44-5.574h.754a.474.474 0 0 0 .365-.777l-2.37-2.844a.49.49 0 0 0-.73 0l-2.37 2.843a.474.474 0 0 0 .364.777h1.057a10.483 10.483 0 0 0 9.37 8.446v.56c.002.124.05.244.137.335l.948.948a.48.48 0 0 0 .673 0l.948-.948a.489.489 0 0 0 .137-.336v-.559a10.483 10.483 0 0 0 9.37-8.446h1.057a.474.474 0 0 0 .365-.777ZM25.742 16.212a1.422 1.422 0 1 1 0-2.844 1.422 1.422 0 0 1 0 2.844Z" fill="#fff"/></symbol><symbol fill="none" viewBox="0 0 51 50" id="facebook" xmlns="http://www.w3.org/2000/svg"><circle cx="25.419" cy="25" r="25" fill="#2D63EF"/><path d="M21.977 38V25.164h-2.376v-3.542h2.377V20.32c0-1.867.55-3.315 1.65-4.344 1.1-1.03 2.643-1.544 4.631-1.544.727 0 1.524.106 2.392.318l.015 3.754c-.313-.09-.732-.136-1.256-.136-1.544 0-2.316.666-2.316 1.998v1.256h3.194v3.542h-3.194V38h-5.117Z" fill="#fff"/></symbol><symbol fill="none" viewBox="0 0 52 52" id="instagram" xmlns="http://www.w3.org/2000/svg"><circle cx="25.919" cy="25.5" r="25.5" fill="#EF72AD"/><path fill-rule="evenodd" clip-rule="evenodd" d="M26.195 0c-1.124 0-2.247.073-3.361.218C35.66 1.905 45.25 12.838 45.25 25.776s-9.59 23.871-22.417 25.558A25.777 25.777 0 1 0 26.195 0Z" fill="#EE539E"/><path fill-rule="evenodd" clip-rule="evenodd" d="M34.098 12.096H18.29a5.784 5.784 0 0 0-5.774 5.774v15.805a5.784 5.784 0 0 0 5.777 5.777h15.805a5.784 5.784 0 0 0 5.777-5.777V17.87a5.784 5.784 0 0 0-5.778-5.774Zm4.386 21.582a4.39 4.39 0 0 1-4.386 4.386H18.29a4.39 4.39 0 0 1-4.386-4.386V17.87a4.391 4.391 0 0 1 4.386-4.383h15.805a4.391 4.391 0 0 1 4.386 4.386v15.805h.003Z" fill="#fff"/><path fill-rule="evenodd" clip-rule="evenodd" d="M26.196 18.588a7.188 7.188 0 1 0 7.188 7.188 7.2 7.2 0 0 0-7.188-7.188Zm0 12.984a5.8 5.8 0 1 1 0-11.6 5.8 5.8 0 0 1 0 11.6Z" fill="#fff"/><circle cx="33.615" cy="17.429" r="1.855" fill="#fff"/></symbol><symbol fill="none" viewBox="0 0 48 47" id="linkedin" xmlns="http://www.w3.org/2000/svg"><circle cx="23.919" cy="23.5" r="23.5" fill="#007AB9"/><path fill-rule="evenodd" clip-rule="evenodd" d="M37.96 25.391v9.69h-5.617V26.04c0-2.27-.81-3.82-2.845-3.82a3.073 3.073 0 0 0-2.88 2.052 3.845 3.845 0 0 0-.187 1.369v9.436h-5.618s.075-15.309 0-16.894h5.618v2.394c-.01.02-.027.037-.037.055h.037v-.055a5.577 5.577 0 0 1 5.06-2.789c3.7 0 6.465 2.415 6.465 7.6l.004.003Zm-23.023-15.35a2.927 2.927 0 1 0-.074 5.838h.036a2.928 2.928 0 1 0 .037-5.838h.001ZM12.09 35.079h5.615V18.185H12.09V35.08Z" fill="#F1F2F2"/></symbol><symbol fill="none" viewBox="0 0 51 50" id="medium" xmlns="http://www.w3.org/2000/svg"><circle cx="25.419" cy="25" r="25" fill="#14100D"/><path fill-rule="evenodd" clip-rule="evenodd" d="m35.505 18.233 1.914-1.833V16h-6.633l-4.729 11.768L20.678 16H13.72v.4l2.24 2.694c.218.2.329.49.3.783V30.46c.067.382-.053.772-.322 1.05l-2.518 3.054v.4h7.145v-.4l-2.52-3.054a1.244 1.244 0 0 1-.347-1.05v-9.154l6.272 13.659h.73l5.392-13.659v10.881c0 .287 0 .346-.188.534l-1.94 1.879v.4h9.412v-.4l-1.87-1.831a.556.556 0 0 1-.214-.534V18.767a.554.554 0 0 1 .214-.534Z" fill="#fff"/></symbol><symbol fill="none" viewBox="0 0 51 50" id="podcast" xmlns="http://www.w3.org/2000/svg"><circle cx="25.419" cy="25" r="25" fill="#8940FC"/><path fill-rule="evenodd" clip-rule="evenodd" d="M39.21 24.476a13.895 13.895 0 1 0-22.9 10.571l-2.183 4.734 11.188-1.4 11.188 1.4-2.184-4.732a13.83 13.83 0 0 0 4.89-10.573ZM24.157 36.19l-6.181.772 3.09-6.7h3.09v5.928Zm0-8.24h-2.021l1.96-4.248c.791.26 1.645.26 2.437 0l1.96 4.247h-4.336Zm-.58-8.106a1.737 1.737 0 1 1 2.8 1.377 1.8 1.8 0 0 1-2.121 0 1.74 1.74 0 0 1-.678-1.377Zm2.896 16.346v-5.925h3.089l3.09 6.7-6.18-.775Zm6.832-3.343-2.2-4.766v-.13h-.06l-2.57-5.57a4.053 4.053 0 1 0-6.32 0l-2.57 5.567h-.06v.133l-2.2 4.766a11.579 11.579 0 1 1 15.979 0Z" fill="#fff"/></symbol><symbol fill="none" viewBox="0 0 51 50" id="spotify" xmlns="http://www.w3.org/2000/svg"><circle cx="25.419" cy="25" r="25" fill="#1BBA54"/><path fill-rule="evenodd" clip-rule="evenodd" d="M34.74 28.588c-5.4-3.56-12.195-4.423-20.187-2.561a1.254 1.254 0 0 0 .568 2.442c12.858-2.99 17.631 2.42 18.928 2.42a1.256 1.256 0 0 0 .691-2.301ZM13.986 22.199c7.19-1.7 15.352-.712 21.3 2.578a1.253 1.253 0 0 0 1.214-2.193c-6.474-3.58-15.32-4.661-23.088-2.824a1.253 1.253 0 1 0 .577 2.439h-.003ZM13.037 15.676c7.573-2.317 18.2-1.046 24.187 2.892a1.254 1.254 0 0 0 1.374-2.095c-6.653-4.375-17.957-5.747-26.3-3.2a1.255 1.255 0 0 0 .734 2.4l.005.003Z" fill="#fff"/><circle cx="23.274" cy="35" r="4" fill="#fff"/></symbol><symbol fill="none" viewBox="0 0 51 50" id="substack" xmlns="http://www.w3.org/2000/svg"><circle cx="25.419" cy="25" r="25" fill="#FF671B"/><path fill-rule="evenodd" clip-rule="evenodd" d="M25.42 29a.749.749 0 0 1-.542-.232l-5.25-5.5A.75.75 0 0 1 20.17 22h2.75v-5.75c0-.69.56-1.249 1.25-1.25h2.5c.69.001 1.248.56 1.25 1.25V22h2.75a.75.75 0 0 1 .541 1.268l-5.25 5.5a.749.749 0 0 1-.541.232ZM35.67 35h-20.5a1.752 1.752 0 0 1-1.75-1.75v-.5A1.752 1.752 0 0 1 15.17 31h20.5a1.752 1.752 0 0 1 1.75 1.75v.5A1.752 1.752 0 0 1 35.67 35Z" fill="#fff"/></symbol><symbol fill="none" viewBox="0 0 51 50" id="twitter" xmlns="http://www.w3.org/2000/svg"><circle cx="25.419" cy="25" r="25" fill="#61BCFE"/><path fill-rule="evenodd" clip-rule="evenodd" d="M36.86 18.886a11.786 11.786 0 0 0 2.96-3.064 12.33 12.33 0 0 1-3.4.932 5.873 5.873 0 0 0 2.6-3.263 11.814 11.814 0 0 1-3.744 1.429 5.9 5.9 0 0 0-10.218 4.036 6.08 6.08 0 0 0 .137 1.345 16.715 16.715 0 0 1-12.17-6.175 5.9 5.9 0 0 0 1.814 7.891 5.837 5.837 0 0 1-2.667-.727v.065a5.932 5.932 0 0 0 4.73 5.8 5.868 5.868 0 0 1-1.548.194 5.21 5.21 0 0 1-1.116-.1 5.962 5.962 0 0 0 5.515 4.113 11.868 11.868 0 0 1-7.32 2.519 11.18 11.18 0 0 1-1.412-.08c2.7 1.74 5.845 2.66 9.056 2.649A16.69 16.69 0 0 0 36.86 18.886Z" fill="#fff"/></symbol><symbol fill="none" viewBox="0 0 51 50" id="wordpress" xmlns="http://www.w3.org/2000/svg"><circle cx="25.419" cy="25" r="25" fill="#fff"/><path fill-rule="evenodd" clip-rule="evenodd" d="M19.66 19.473h-1.473l4.011 11.338 2.247-6.417-1.742-4.921H21.15v-1.08h6.873v1.08h-1.61l4.011 11.338 1.443-4.12c1.89-5.279-1.55-6.923-1.55-8.1a2.133 2.133 0 0 1 2.318-2.124 11.146 11.146 0 0 0-16.927 1.927h3.95v1.079ZM13.841 24.567a11.144 11.144 0 0 0 5.92 9.846l-5.029-14.218a11.11 11.11 0 0 0-.89 4.372ZM34.688 19.075a7.878 7.878 0 0 1-.133 3.053h.044l-.17.482c-.103.357-.226.709-.367 1.053l-3.835 10.745a11.152 11.152 0 0 0 4.46-15.332v-.001Z" fill="#00769D"/><path fill-rule="evenodd" clip-rule="evenodd" d="M21.55 35.172a11.2 11.2 0 0 0 6.725.048l-3.26-9.216-3.465 9.168Z" fill="#00769D"/><path fill-rule="evenodd" clip-rule="evenodd" d="M34.407 15.146c-5.203-5.203-13.638-5.203-18.84 0-5.204 5.203-5.204 13.638 0 18.841 5.202 5.203 13.637 5.203 18.84 0 5.203-5.203 5.203-13.638 0-18.841Zm-9.42 21.8a12.381 12.381 0 1 1 12.38-12.379c-.012 6.831-5.547 12.367-12.38 12.379Z" fill="#00769D"/></symbol><symbol fill="none" viewBox="0 0 51 50" id="wordpress01" xmlns="http://www.w3.org/2000/svg"><circle cx="25.419" cy="25" r="25" fill="#fff"/><path fill-rule="evenodd" clip-rule="evenodd" d="M19.66 19.473h-1.473l4.011 11.338 2.247-6.417-1.742-4.921H21.15v-1.08h6.873v1.08h-1.61l4.011 11.338 1.443-4.12c1.89-5.279-1.55-6.923-1.55-8.1a2.133 2.133 0 0 1 2.318-2.124 11.146 11.146 0 0 0-16.927 1.927h3.95v1.079ZM13.841 24.567a11.144 11.144 0 0 0 5.92 9.846l-5.029-14.218a11.11 11.11 0 0 0-.89 4.372ZM34.688 19.075a7.88 7.88 0 0 1-.133 3.053h.044l-.17.482c-.103.357-.226.709-.367 1.053l-3.835 10.745a11.15 11.15 0 0 0 4.46-15.332v-.001Z" fill="#00769D"/><path fill-rule="evenodd" clip-rule="evenodd" d="M21.55 35.172a11.2 11.2 0 0 0 6.725.048l-3.26-9.216-3.465 9.168Z" fill="#00769D"/><path fill-rule="evenodd" clip-rule="evenodd" d="M34.407 15.146c-5.202-5.203-13.638-5.203-18.84 0-5.204 5.203-5.204 13.638 0 18.841 5.202 5.203 13.637 5.203 18.84 0 5.203-5.203 5.203-13.638 0-18.841Zm-9.42 21.8a12.381 12.381 0 1 1 12.38-12.379c-.012 6.831-5.547 12.367-12.38 12.379Z" fill="#00769D"/></symbol><symbol fill="none" viewBox="0 0 51 50" id="youtube" xmlns="http://www.w3.org/2000/svg"><circle cx="25.419" cy="25" r="25" fill="#FC3C3A"/><path fill-rule="evenodd" clip-rule="evenodd" d="m30.05 24.29-6.7-4.188a.838.838 0 0 0-1.282.71v8.376a.838.838 0 0 0 1.281.71l6.7-4.188a.838.838 0 0 0 0-1.42h.001Zm-6.307 3.387v-5.353l4.283 2.677-4.283 2.676Z" fill="#fff"/><path fill-rule="evenodd" clip-rule="evenodd" d="M35.525 14.112H15.313a4.193 4.193 0 0 0-4.189 4.188v13.4a4.193 4.193 0 0 0 4.188 4.188h20.213a4.193 4.193 0 0 0 4.188-4.188V18.3a4.193 4.193 0 0 0-4.188-4.188Zm2.513 17.589a2.516 2.516 0 0 1-2.513 2.511H15.313a2.516 2.516 0 0 1-2.514-2.513v-13.4a2.516 2.516 0 0 1 2.513-2.513h20.213a2.516 2.516 0 0 1 2.513 2.513v13.402Z" fill="#fff"/></symbol></svg>