<?xml version="1.0" encoding="utf-8"?><svg xmlns="http://www.w3.org/2000/svg" xmlns:xlink="http://www.w3.org/1999/xlink"><symbol viewBox="0 0 35 40" id="apple" xmlns="http://www.w3.org/2000/svg"><path fill-rule="evenodd" clip-rule="evenodd" d="M33.421 31.138a21.37 21.37 0 0 1-2.114 3.8 19.31 19.31 0 0 1-2.723 3.291 5.282 5.282 0 0 1-3.5 1.541 8.773 8.773 0 0 1-3.232-.772 9.274 9.274 0 0 0-3.48-.769 9.59 9.59 0 0 0-3.578.769 9.625 9.625 0 0 1-3.092.813 4.973 4.973 0 0 1-3.578-1.582 20.272 20.272 0 0 1-2.848-3.407 23.565 23.565 0 0 1-3.011-5.982A21.898 21.898 0 0 1 1 21.71a13.018 13.018 0 0 1 1.71-6.81 10.028 10.028 0 0 1 3.58-3.623 9.631 9.631 0 0 1 4.841-1.366c1.288.076 2.554.37 3.744.871.948.418 1.947.711 2.97.873a17.776 17.776 0 0 0 3.293-1.029 10.886 10.886 0 0 1 4.476-.795 9.5 9.5 0 0 1 7.445 3.92 8.28 8.28 0 0 0-4.392 7.523 8.3 8.3 0 0 0 2.725 6.253 8.958 8.958 0 0 0 2.723 1.786 29.97 29.97 0 0 1-.694 1.822v.003ZM25.835 1.287a8.387 8.387 0 0 1-2.15 5.5c-1.728 2.02-3.818 3.187-6.084 3a6.123 6.123 0 0 1-.046-.745 8.617 8.617 0 0 1 2.28-5.559 8.782 8.782 0 0 1 2.78-2.083 8.284 8.284 0 0 1 3.179-.9c.028.261.042.523.041.786v.001Z"/></symbol><symbol viewBox="0 0 31 31" id="at" xmlns="http://www.w3.org/2000/svg"><g opacity=".5" fill-rule="evenodd" clip-rule="evenodd"><path d="M15.304 22.512a7.42 7.42 0 0 1-7.5-7.5 7.421 7.421 0 0 1 7.5-7.5 7.42 7.42 0 0 1 7.5 7.5 7.42 7.42 0 0 1-7.5 7.5Zm0-12a4.4 4.4 0 0 0-4.5 4.5 4.4 4.4 0 0 0 4.5 4.5 4.4 4.4 0 0 0 4.5-4.5 4.4 4.4 0 0 0-4.5-4.5Z"/><path d="M22.732 30.31h-7.577C6.785 30.31 0 23.525 0 15.155S6.785 0 15.155 0 30.31 6.785 30.31 15.155v2.273a5.304 5.304 0 1 1-10.608 0v-2.273h3.031v2.273a2.273 2.273 0 0 0 4.546 0v-2.273c0-6.696-5.428-12.124-12.124-12.124-6.696 0-12.124 5.428-12.124 12.124 0 6.696 5.428 12.124 12.124 12.124h7.577v3.031Z"/></g></symbol><symbol viewBox="0 0 22 28" id="confident" xmlns="http://www.w3.org/2000/svg"><path fill-rule="evenodd" clip-rule="evenodd" d="M18.559 10.83v-2.8a7.558 7.558 0 1 0-15.115 0v2.8H.959v6.658C.959 23.034 5.454 27.53 11 27.53s10.041-4.495 10.041-10.04v-6.66h-2.482Zm-6.765 9.4V22.7h-1.587v-2.47a2.907 2.907 0 1 1 1.585 0l.002-.002Zm5.179-9.4H5.028v-2.8a5.972 5.972 0 1 1 11.944 0l.001 2.8Z"/></symbol><symbol viewBox="0 0 11 7" id="down-arrow" xmlns="http://www.w3.org/2000/svg"><path fill-rule="evenodd" clip-rule="evenodd" d="M5.498 4.373 1.493.54a.606.606 0 0 0-.828 0l-.35.336a.544.544 0 0 0 0 .792l4.767 4.563a.61.61 0 0 0 .831 0l4.764-4.558a.544.544 0 0 0 0-.792l-.351-.336a.605.605 0 0 0-.828 0l-4 3.827Z"/></symbol><symbol viewBox="0 0 33 25" id="eye" xmlns="http://www.w3.org/2000/svg"><path fill-rule="evenodd" clip-rule="evenodd" d="M16.5 24.512a16.058 16.058 0 0 1-7.641-1.875 18.2 18.2 0 0 1-5.109-4.125 22.048 22.048 0 0 1-3.75-6 22.184 22.184 0 0 1 3.75-6 18.2 18.2 0 0 1 5.109-4.125A16.057 16.057 0 0 1 16.5.512a16.057 16.057 0 0 1 7.641 1.875 18.2 18.2 0 0 1 5.109 4.125 22.045 22.045 0 0 1 3.75 6 22.187 22.187 0 0 1-3.75 6 18.2 18.2 0 0 1-5.109 4.125 16.058 16.058 0 0 1-7.641 1.875Zm0-21c-7.827 0-11.847 6.3-13.213 9.005 1.351 2.704 5.344 8.995 13.213 8.995 7.826 0 11.848-6.3 13.214-9.006-1.35-2.703-5.341-8.994-13.214-8.994Zm0 15a6 6 0 1 1 0-12 6 6 0 0 1 0 12Zm0-9a3 3 0 1 0 0 6 3 3 0 0 0 0-6Z" opacity=".5"/></symbol><symbol viewBox="0 0 46 43" id="logo" xmlns="http://www.w3.org/2000/svg"><path fill-rule="evenodd" clip-rule="evenodd" d="M0 24.048v18.8h16.424v-2.66L0 24.048ZM28.691 42.852h16.422v-18.8L28.695 40.193l-.004 2.659ZM45.115.844l-22.51 22.127L0 .75v19.12l22.605 22.221 22.506-22.123.004-19.124Z"/></symbol><symbol viewBox="0 0 48 53" id="logo-footer" xmlns="http://www.w3.org/2000/svg"><path fill-rule="evenodd" clip-rule="evenodd" d="M0 39.5v13.037h11.292v-1.845L0 39.5ZM35.884 52.54h11.292V39.502L35.887 50.694l-.003 1.845ZM47.176.274 23.638 28.027 0 .157v23.982l23.638 27.873 23.534-27.75.004-23.988Z"/></symbol><symbol viewBox="0 0 15 16" id="team-arrow" xmlns="http://www.w3.org/2000/svg"><path fill-rule="evenodd" clip-rule="evenodd" d="M1.545 15.568 12.45 3.021l.4 8.782a.833.833 0 0 0 1.665-.076l-.457-10.03A1.666 1.666 0 0 0 12.262.151l-9.976.942a.834.834 0 0 0 .157 1.66l8.77-.847L.286 14.475a.833.833 0 1 0 1.259 1.093Z"/></symbol><symbol viewBox="0 0 27 32" id="user" xmlns="http://www.w3.org/2000/svg"><g opacity=".5"><path fill-rule="evenodd" clip-rule="evenodd" d="M13.452 15.6a7.064 7.064 0 0 0 5.162-2.139A7.064 7.064 0 0 0 20.753 8.3a7.065 7.065 0 0 0-2.139-5.162 7.3 7.3 0 0 0-10.323 0A7.064 7.064 0 0 0 6.152 8.3a7.064 7.064 0 0 0 2.139 5.162 7.066 7.066 0 0 0 5.161 2.138ZM9.547 4.395a5.522 5.522 0 0 1 7.811 0A5.278 5.278 0 0 1 18.976 8.3a5.278 5.278 0 0 1-1.618 3.906 5.522 5.522 0 0 1-7.811 0A5.277 5.277 0 0 1 7.928 8.3a5.277 5.277 0 0 1 1.619-3.906v.001Z"/><path d="m18.614 13.461-.244-.251-.007.007.251.244ZM20.753 8.3l-.35-.005v.01l.35-.005Zm-2.139-5.162-.248.248.004.003.244-.251Zm-10.323 0 .244.25.003-.003-.247-.247ZM6.152 8.3l.35.005v-.01l-.35.005Zm2.139 5.162.251-.244-.007-.007-.244.251Zm1.256-9.067h-.35v.845l.598-.598-.248-.247Zm7.811 0-.248.247.005.005.243-.252ZM18.976 8.3l-.35-.007v.014l.35-.007Zm-1.618 3.906-.243-.252-.005.005.248.247Zm-7.811 0 .248-.247-.005-.005-.243.252ZM7.928 8.3l.35.007v-.014l-.35.007Zm1.619-3.906h.35v-.822l-.593.57.243.252Zm3.9 11.556a7.414 7.414 0 0 0 5.418-2.245l-.502-.488a6.714 6.714 0 0 1-4.906 2.033l-.01.7Zm5.411-2.238a7.414 7.414 0 0 0 2.245-5.417l-.7.01a6.714 6.714 0 0 1-2.033 4.905l.488.502Zm2.245-5.407a7.415 7.415 0 0 0-2.245-5.418l-.488.502a6.715 6.715 0 0 1 2.033 4.906l.7.01ZM18.861 2.89a7.65 7.65 0 0 0-10.817 0l.494.495a6.95 6.95 0 0 1 9.828 0l.495-.495ZM8.047 2.887a7.414 7.414 0 0 0-2.245 5.418l.7-.01A6.714 6.714 0 0 1 8.535 3.39l-.488-.502ZM5.802 8.295a7.414 7.414 0 0 0 2.245 5.418l.488-.502a6.714 6.714 0 0 1-2.033-4.906l-.7-.01Zm2.238 5.411a7.416 7.416 0 0 0 5.417 2.244l-.01-.7a6.716 6.716 0 0 1-4.905-2.032l-.502.488Zm1.755-9.064a5.172 5.172 0 0 1 3.658-1.515v-.7a5.872 5.872 0 0 0-4.154 1.72l.496.495Zm3.658-1.515c1.372 0 2.687.545 3.657 1.515l.496-.494a5.872 5.872 0 0 0-4.154-1.721v.7Zm3.662 1.52a4.928 4.928 0 0 1 1.511 3.646l.7.014A5.628 5.628 0 0 0 17.6 4.143l-.486.504Zm1.511 3.66a4.928 4.928 0 0 1-1.51 3.647l.485.504a5.628 5.628 0 0 0 1.725-4.165l-.7.014Zm-1.516 3.652a5.172 5.172 0 0 1-3.657 1.515v.7a5.872 5.872 0 0 0 4.153-1.72l-.496-.495Zm-3.657 1.515a5.172 5.172 0 0 1-3.658-1.515l-.496.494a5.872 5.872 0 0 0 4.154 1.721v-.7Zm-3.663-1.52a4.927 4.927 0 0 1-1.512-3.647l-.7-.014a5.627 5.627 0 0 0 1.726 4.165l.486-.504Zm-1.512-3.66A4.927 4.927 0 0 1 9.79 4.645l-.486-.504a5.627 5.627 0 0 0-1.726 4.165l.7-.014Zm.919-3.9v.001h.7v-.001h-.7Z"/><path fill-rule="evenodd" clip-rule="evenodd" d="M26.226 24.307a18.034 18.034 0 0 0-.246-1.915 15.083 15.083 0 0 0-.471-1.926 9.511 9.511 0 0 0-.792-1.8 6.77 6.77 0 0 0-1.193-1.556 5.261 5.261 0 0 0-1.715-1.077 5.926 5.926 0 0 0-2.189-.4c-.436.046-.85.22-1.187.5-.356.232-.772.5-1.236.8a7.078 7.078 0 0 1-1.6.7 6.21 6.21 0 0 1-3.912 0 7.058 7.058 0 0 1-1.6-.7c-.46-.294-.876-.562-1.237-.8a2.22 2.22 0 0 0-1.186-.5 5.917 5.917 0 0 0-2.189.4 5.258 5.258 0 0 0-1.715 1.077 6.774 6.774 0 0 0-1.193 1.555 9.53 9.53 0 0 0-.792 1.8c-.199.63-.356 1.274-.471 1.925a17.903 17.903 0 0 0-.246 1.916c-.04.579-.061 1.181-.061 1.79a5.033 5.033 0 0 0 1.495 3.808 5.38 5.38 0 0 0 3.852 1.4h14.599a5.38 5.38 0 0 0 3.852-1.4 5.031 5.031 0 0 0 1.5-3.808c0-.611-.021-1.213-.061-1.79l-.006.001Zm-2.658 4.311a3.623 3.623 0 0 1-2.627.916H6.347a3.623 3.623 0 0 1-2.627-.915 3.287 3.287 0 0 1-.943-2.521c0-.568.019-1.129.056-1.667.043-.579.117-1.154.222-1.725.1-.575.239-1.143.414-1.7.164-.508.38-.997.644-1.46a5.02 5.02 0 0 1 .877-1.15c.33-.308.718-.549 1.141-.709a4.089 4.089 0 0 1 1.4-.27c.062.033.173.1.352.213.365.238.786.509 1.251.807a8.8 8.8 0 0 0 2.007.9 7.985 7.985 0 0 0 5 0 8.81 8.81 0 0 0 2.009-.9c.476-.3.885-.568 1.25-.806.179-.117.29-.18.352-.213.479.007.953.099 1.4.27.422.16.81.401 1.141.709.347.339.642.726.877 1.15.264.463.48.953.644 1.46.175.557.313 1.125.414 1.7a16.3 16.3 0 0 1 .222 1.725c.038.536.057 1.1.057 1.666a3.286 3.286 0 0 1-.943 2.521l.004-.001Z"/><path d="m26.226 24.307-.349.026.028.383.38-.064-.059-.345Zm-.246-1.915-.345.06v.003l.345-.063Zm-.471-1.926.334-.105v-.002l-.334.107Zm-.792-1.8-.306.17.002.003.304-.173Zm-1.193-1.556.244-.251-.004-.004-.24.255Zm-1.715-1.077-.126.326.126-.326Zm-2.189-.4-.003-.35H19.6l-.017.002.037.348Zm-1.187.5.191.293.017-.01.016-.014-.224-.269Zm-1.236.8.179.301.011-.007-.19-.294Zm-1.6.7-.1-.336-.01.004.11.332Zm-3.912 0 .11-.332-.01-.003-.1.335Zm-1.6-.7-.189.295.01.006.179-.301Zm-1.237-.8-.224.27.015.012.016.01.193-.292Zm-1.186-.5.037-.348-.017-.002h-.017l-.003.35Zm-2.189.4.126.327-.126-.327ZM3.758 17.11l-.24-.255-.004.004.244.251Zm-1.193 1.555.304.173.002-.002-.306-.171Zm-.792 1.8-.333-.107v.002l.333.105Zm-.471 1.925.344.063v-.002l-.344-.061Zm-.246 1.916-.349-.026v.002l.349.024Zm-.061 1.79.35.016v-.016h-.35Zm1.495 3.808-.246.25.01.009.236-.259Zm3.852 1.4v-.35h-.015l.015.35Zm14.599 0 .015-.35h-.015v.35Zm3.852-1.4.236.259.01-.01-.246-.249Zm1.5-3.808h-.35v.015l.35-.015Zm-.061-1.79.35-.024-.027-.385-.381.064.058.345Zm-2.664 4.312.233.26-.316-.6.083.34Zm-2.627.916.02-.35h-.02v.35Zm-14.594 0v-.35h-.02l.02.35Zm-2.627-.915-.249.246.008.008.008.007.233-.261Zm-.943-2.521.35.022v-.022h-.35Zm.056-1.667-.349-.026v.002l.349.024Zm.222-1.725.344.063v-.003l-.344-.06Zm.414-1.7-.333-.108v.003l.333.105Zm.644-1.46.304.173.002-.003-.306-.17Zm.877-1.15-.239-.256-.006.006.245.25Zm1.141-.709.124.327h.001l-.125-.327Zm1.4-.27.164-.309-.08-.042-.09.001.006.35Zm.352.213.191-.293-.004-.003-.187.296Zm1.251.807-.189.295.007.004.182-.299Zm2.007.9.11-.332-.008-.003-.102.335Zm5 0-.102-.335-.008.003.11.332Zm2.009-.9.182.3.005-.004-.187-.296Zm1.25-.806.191.293-.191-.293Zm.352-.213.005-.35-.09-.001-.08.042.165.309Zm1.4.27-.125.327.125-.327Zm1.141.709.245-.25-.007-.006-.238.256Zm.877 1.15-.306.17.002.004.304-.174Zm.644 1.46.334-.105V20.9l-.334.107Zm.414 1.7-.345.06v.003l.345-.063Zm.279 3.391h-.35v.022l.35-.022Zm-.943 2.521-.249-.246-.867.877 1.198-.29-.082-.341Zm3.011-4.338a18.384 18.384 0 0 0-.25-1.952l-.69.126c.115.621.195 1.248.242 1.878l.698-.052Zm-.25-1.95a15.422 15.422 0 0 0-.482-1.97l-.668.21c.195.617.348 1.245.46 1.882l.69-.122Zm-.483-1.972a9.858 9.858 0 0 0-.821-1.866l-.608.346c.313.55.57 1.131.763 1.734l.666-.214Zm-.82-1.864a7.12 7.12 0 0 0-1.254-1.636l-.488.502c.447.434.828.931 1.131 1.476l.612-.341Zm-1.258-1.64a5.612 5.612 0 0 0-1.83-1.149l-.25.654c.593.228 1.137.57 1.6 1.005l.48-.51Zm-1.828-1.148a6.276 6.276 0 0 0-2.319-.424l.006.7a5.577 5.577 0 0 1 2.06.376l.253-.652Zm-2.353-.422a2.573 2.573 0 0 0-1.373.579l.447.538a1.872 1.872 0 0 1 1-.42l-.074-.697Zm-1.341.555-1.235.8.38.587 1.237-.8-.382-.587Zm-1.224.792a6.733 6.733 0 0 1-1.52.665l.199.671a7.436 7.436 0 0 0 1.679-.734l-.358-.602Zm-1.531.669a5.859 5.859 0 0 1-3.692 0l-.22.664a6.56 6.56 0 0 0 4.132 0l-.22-.664Zm-3.703-.003a6.712 6.712 0 0 1-1.52-.666l-.358.602c.527.313 1.091.56 1.68.735l.198-.672Zm-1.51-.66c-.46-.294-.874-.56-1.233-.797l-.386.584c.363.24.781.509 1.242.803l.377-.59Zm-1.202-.774a2.57 2.57 0 0 0-1.373-.58l-.074.697a1.87 1.87 0 0 1 1 .421l.447-.538Zm-1.407-.581a6.27 6.27 0 0 0-2.319.424l.254.652a5.567 5.567 0 0 1 2.059-.376l.006-.7Zm-2.318.423c-.678.261-1.3.651-1.829 1.149l.48.51a4.912 4.912 0 0 1 1.6-1.005l-.25-.654ZM3.514 16.86a7.122 7.122 0 0 0-1.255 1.635l.612.342a6.423 6.423 0 0 1 1.131-1.475l-.488-.502Zm-1.253 1.633a9.882 9.882 0 0 0-.821 1.866l.666.214c.194-.602.45-1.184.763-1.734l-.608-.346Zm-.822 1.868a15.474 15.474 0 0 0-.482 1.97l.69.12c.112-.636.265-1.264.46-1.88l-.668-.21Zm-.481 1.967a18.25 18.25 0 0 0-.251 1.953l.698.052c.047-.63.127-1.257.241-1.879l-.688-.126Zm-.251 1.955c-.04.587-.062 1.197-.062 1.814h.7c0-.601.02-1.195.06-1.766l-.698-.048ZM.645 26.08a5.383 5.383 0 0 0 1.6 4.072l.49-.498a4.683 4.683 0 0 1-1.39-3.543l-.7-.031Zm1.61 4.082a5.73 5.73 0 0 0 4.102 1.49l-.03-.699a5.03 5.03 0 0 1-3.601-1.309l-.472.518Zm4.087 1.491h14.599v-.7H6.342v.7Zm14.584 0a5.73 5.73 0 0 0 4.103-1.491l-.472-.518a5.031 5.031 0 0 1-3.601 1.31l-.03.699Zm4.112-1.5a5.38 5.38 0 0 0 1.605-4.073l-.7.03a4.681 4.681 0 0 1-1.395 3.543l.49.5Zm1.605-4.058c0-.619-.021-1.229-.062-1.814l-.698.048c.04.569.06 1.163.06 1.766h.7Zm-.47-2.135h-.005l.116.691h.006l-.116-.691Zm-2.838 4.396c-.65.58-1.504.879-2.373.828l-.041.698a3.973 3.973 0 0 0 2.88-1.004l-.466-.522Zm-2.394.827H6.347v.7h14.594v-.7Zm-14.615 0a3.273 3.273 0 0 1-2.373-.826l-.466.522a3.973 3.973 0 0 0 2.88 1.003l-.04-.698Zm-2.357-.811a2.937 2.937 0 0 1-.843-2.253l-.698-.044a3.637 3.637 0 0 0 1.043 2.79l.498-.493Zm-.842-2.275c0-.56.019-1.113.055-1.643l-.698-.048a24.778 24.778 0 0 0-.057 1.691h.7Zm.055-1.641c.042-.566.115-1.13.217-1.688l-.688-.126a16.507 16.507 0 0 0-.227 1.762l.698.052Zm.218-1.69c.098-.56.232-1.114.403-1.656l-.668-.21c-.18.572-.321 1.154-.425 1.745l.69.12Zm.402-1.653c.157-.485.363-.952.615-1.395l-.608-.346a8.11 8.11 0 0 0-.673 1.525l.666.216Zm.617-1.398c.219-.394.494-.755.816-1.07l-.49-.5a5.37 5.37 0 0 0-.938 1.23l.612.34Zm.81-1.064a3.142 3.142 0 0 1 1.026-.638l-.248-.654a3.844 3.844 0 0 0-1.255.78l.476.512Zm1.027-.638c.41-.157.842-.24 1.28-.247l-.01-.7a4.437 4.437 0 0 0-1.52.293l.25.654Zm1.11-.288a6.5 6.5 0 0 1 .33.2l.374-.592a7.004 7.004 0 0 0-.375-.226l-.328.618Zm.326.197c.366.239.788.51 1.253.809l.378-.59c-.465-.297-.885-.568-1.249-.805l-.382.586Zm1.26.813a9.157 9.157 0 0 0 2.087.936l.204-.67a8.452 8.452 0 0 1-1.927-.864l-.364.598Zm2.08.933a8.335 8.335 0 0 0 5.219 0l-.22-.664a7.635 7.635 0 0 1-4.78 0l-.22.664Zm5.211.003a9.165 9.165 0 0 0 2.089-.936l-.364-.598a8.463 8.463 0 0 1-1.93.864l.205.67Zm2.094-.939c.478-.302.89-.571 1.254-.809l-.382-.586c-.366.238-.772.505-1.246.803l.374.592Zm1.255-.809c.171-.112.273-.17.325-.197l-.33-.618a4.937 4.937 0 0 0-.378.23l.383.585Zm.155-.156c.438.007.87.09 1.28.247l.25-.654c-.485-.186-1-.285-1.52-.293l-.01.7Zm1.28.247c.381.145.73.361 1.028.638l.476-.512a3.849 3.849 0 0 0-1.255-.78l-.248.654Zm1.021.632c.323.315.597.676.816 1.07l.612-.34a5.352 5.352 0 0 0-.938-1.23l-.49.5Zm.818 1.074c.253.442.459.909.615 1.393l.666-.214a8.072 8.072 0 0 0-.673-1.526l-.608.347Zm.614 1.391c.17.542.305 1.095.403 1.655l.69-.12a13.666 13.666 0 0 0-.425-1.745l-.668.21Zm.404 1.658c.102.558.175 1.122.217 1.688l.698-.052c-.044-.591-.12-1.18-.227-1.762l-.688.126Zm.217 1.687c.037.527.056 1.083.056 1.641h.7c0-.574-.02-1.146-.058-1.69l-.698.049Zm.057 1.663a2.936 2.936 0 0 1-.843 2.253l.498.492a3.636 3.636 0 0 0 1.043-2.79l-.698.045Zm-.512 2.84.005-.002-.166-.68h-.003l.165.681Z"/></g></symbol></svg>