<svg width="52" height="52" fill="none" xmlns="http://www.w3.org/2000/svg"><circle cx="25.919" cy="25.5" r="25.5" fill="#EF72AD"/><path fill-rule="evenodd" clip-rule="evenodd" d="M26.195 0c-1.124 0-2.247.073-3.361.218C35.66 1.905 45.25 12.838 45.25 25.776s-9.59 23.871-22.417 25.558A25.777 25.777 0 1 0 26.195 0Z" fill="#EE539E"/><path fill-rule="evenodd" clip-rule="evenodd" d="M34.098 12.096H18.29a5.784 5.784 0 0 0-5.774 5.774v15.805a5.784 5.784 0 0 0 5.777 5.777h15.805a5.784 5.784 0 0 0 5.777-5.777V17.87a5.784 5.784 0 0 0-5.778-5.774Zm4.386 21.582a4.39 4.39 0 0 1-4.386 4.386H18.29a4.39 4.39 0 0 1-4.386-4.386V17.87a4.391 4.391 0 0 1 4.386-4.383h15.805a4.391 4.391 0 0 1 4.386 4.386v15.805h.003Z" fill="#fff"/><path fill-rule="evenodd" clip-rule="evenodd" d="M26.196 18.588a7.188 7.188 0 1 0 7.188 7.188 7.2 7.2 0 0 0-7.188-7.188Zm0 12.984a5.8 5.8 0 1 1 0-11.6 5.8 5.8 0 0 1 0 11.6Z" fill="#fff"/><circle cx="33.615" cy="17.429" r="1.855" fill="#fff"/></svg>