<svg width="48" height="47" fill="none" xmlns="http://www.w3.org/2000/svg"><circle cx="23.919" cy="23.5" r="23.5" fill="#007AB9"/><path fill-rule="evenodd" clip-rule="evenodd" d="M37.96 25.391v9.69h-5.617V26.04c0-2.27-.81-3.82-2.845-3.82a3.073 3.073 0 0 0-2.88 2.052 3.845 3.845 0 0 0-.187 1.369v9.436h-5.618s.075-15.309 0-16.894h5.618v2.394c-.01.02-.027.037-.037.055h.037v-.055a5.577 5.577 0 0 1 5.06-2.789c3.7 0 6.465 2.415 6.465 7.6l.004.003Zm-23.023-15.35a2.927 2.927 0 1 0-.074 5.838h.036a2.928 2.928 0 1 0 .037-5.838h.001ZM12.09 35.079h5.615V18.185H12.09V35.08Z" fill="#F1F2F2"/></svg>