<svg width="51" height="50" fill="none" xmlns="http://www.w3.org/2000/svg"><circle cx="25.419" cy="25" r="25" fill="#14100D"/><path fill-rule="evenodd" clip-rule="evenodd" d="m35.505 18.233 1.914-1.833V16h-6.633l-4.729 11.768L20.678 16H13.72v.4l2.24 2.694c.218.2.329.49.3.783V30.46a1.21 1.21 0 0 1-.322 1.05l-2.518 3.054v.4h7.145v-.4l-2.52-3.054a1.244 1.244 0 0 1-.347-1.05v-9.154l6.272 13.659h.73l5.392-13.659v10.881c0 .287 0 .346-.188.534l-1.94 1.879v.4h9.412v-.4l-1.87-1.831a.556.556 0 0 1-.214-.534V18.767a.554.554 0 0 1 .214-.534Z" fill="#fff"/></svg>