<svg width="51" height="50" fill="none" xmlns="http://www.w3.org/2000/svg"><circle cx="25.419" cy="25" r="25" fill="#8940FC"/><path fill-rule="evenodd" clip-rule="evenodd" d="M39.21 24.476a13.895 13.895 0 1 0-22.9 10.571l-2.183 4.734 11.188-1.4 11.188 1.4-2.184-4.732a13.83 13.83 0 0 0 4.89-10.573ZM24.157 36.19l-6.181.772 3.09-6.7h3.09v5.928Zm0-8.24h-2.021l1.96-4.248c.791.26 1.645.26 2.437 0l1.96 4.247h-4.336Zm-.58-8.106a1.737 1.737 0 1 1 2.8 1.377 1.8 1.8 0 0 1-2.121 0 1.74 1.74 0 0 1-.678-1.377Zm2.896 16.346v-5.925h3.089l3.09 6.7-6.18-.775Zm6.832-3.343-2.2-4.766v-.13h-.06l-2.57-5.57a4.053 4.053 0 1 0-6.32 0l-2.57 5.567h-.06v.133l-2.2 4.766a11.579 11.579 0 1 1 15.979 0Z" fill="#fff"/></svg>