<svg width="51" height="50" fill="none" xmlns="http://www.w3.org/2000/svg"><circle cx="25.419" cy="25" r="25" fill="#1BBA54"/><path fill-rule="evenodd" clip-rule="evenodd" d="M34.74 28.588c-5.4-3.56-12.195-4.423-20.187-2.561a1.254 1.254 0 0 0 .568 2.442c12.858-2.99 17.631 2.42 18.928 2.42a1.256 1.256 0 0 0 .691-2.301Zm-20.754-6.389c7.19-1.7 15.352-.712 21.3 2.578a1.253 1.253 0 0 0 1.214-2.193c-6.474-3.58-15.32-4.661-23.088-2.824a1.253 1.253 0 1 0 .577 2.439h-.003Zm-.949-6.523c7.573-2.317 18.2-1.046 24.187 2.892a1.254 1.254 0 0 0 1.374-2.095c-6.653-4.375-17.957-5.747-26.3-3.2a1.255 1.255 0 0 0 .734 2.4l.005.003Z" fill="#fff"/><circle cx="23.274" cy="35" r="4" fill="#fff"/></svg>