<svg width="51" height="50" fill="none" xmlns="http://www.w3.org/2000/svg"><circle cx="25.419" cy="25" r="25" fill="#FF671B"/><path fill-rule="evenodd" clip-rule="evenodd" d="M25.42 29a.749.749 0 0 1-.542-.232l-5.25-5.5A.75.75 0 0 1 20.17 22h2.75v-5.75c0-.69.56-1.249 1.25-1.25h2.5c.69.001 1.248.56 1.25 1.25V22h2.75a.75.75 0 0 1 .541 1.268l-5.25 5.5a.749.749 0 0 1-.541.232Zm10.25 6h-20.5a1.752 1.752 0 0 1-1.75-1.75v-.5A1.752 1.752 0 0 1 15.17 31h20.5a1.752 1.752 0 0 1 1.75 1.75v.5A1.752 1.752 0 0 1 35.67 35Z" fill="#fff"/></svg>