<svg width="51" height="50" fill="none" xmlns="http://www.w3.org/2000/svg"><circle cx="25.419" cy="25" r="25" fill="#61BCFE"/><path fill-rule="evenodd" clip-rule="evenodd" d="M36.86 18.886a11.786 11.786 0 0 0 2.96-3.064 12.33 12.33 0 0 1-3.4.932 5.873 5.873 0 0 0 2.6-3.263 11.814 11.814 0 0 1-3.744 1.429 5.9 5.9 0 0 0-10.218 4.036 6.08 6.08 0 0 0 .137 1.345 16.715 16.715 0 0 1-12.17-6.175 5.9 5.9 0 0 0 1.814 7.891 5.837 5.837 0 0 1-2.667-.727v.065a5.932 5.932 0 0 0 4.73 5.8 5.868 5.868 0 0 1-1.548.194 5.21 5.21 0 0 1-1.116-.1 5.962 5.962 0 0 0 5.515 4.113 11.868 11.868 0 0 1-7.32 2.519 11.18 11.18 0 0 1-1.412-.08c2.7 1.74 5.845 2.66 9.056 2.649A16.69 16.69 0 0 0 36.86 18.886Z" fill="#fff"/></svg>