<svg width="51" height="50" fill="none" xmlns="http://www.w3.org/2000/svg"><circle cx="25.419" cy="25" r="25" fill="#fff"/><path fill-rule="evenodd" clip-rule="evenodd" d="M19.66 19.473h-1.473l4.011 11.338 2.247-6.417-1.742-4.921H21.15v-1.08h6.873v1.08h-1.61l4.011 11.338 1.443-4.12c1.89-5.279-1.55-6.923-1.55-8.1a2.133 2.133 0 0 1 2.318-2.124 11.146 11.146 0 0 0-16.927 1.927h3.95v1.079Zm-5.819 5.094a11.144 11.144 0 0 0 5.92 9.846l-5.029-14.218a11.11 11.11 0 0 0-.89 4.372Zm20.847-5.492a7.878 7.878 0 0 1-.133 3.053h.044l-.17.482c-.103.357-.226.709-.367 1.053l-3.835 10.745a11.152 11.152 0 0 0 4.46-15.332v-.001Z" fill="#00769D"/><path fill-rule="evenodd" clip-rule="evenodd" d="M21.55 35.172a11.2 11.2 0 0 0 6.725.048l-3.26-9.216-3.465 9.168Z" fill="#00769D"/><path fill-rule="evenodd" clip-rule="evenodd" d="M34.407 15.146c-5.203-5.203-13.638-5.203-18.84 0-5.204 5.203-5.204 13.638 0 18.841 5.202 5.203 13.637 5.203 18.84 0 5.203-5.203 5.203-13.638 0-18.841Zm-9.42 21.8a12.381 12.381 0 1 1 12.38-12.379c-.012 6.831-5.547 12.367-12.38 12.379Z" fill="#00769D"/></svg>