<?xml version="1.0" standalone="no"?>
<!DOCTYPE svg PUBLIC "-//W3C//DTD SVG 20010904//EN"
 "http://www.w3.org/TR/2001/REC-SVG-20010904/DTD/svg10.dtd">
<svg version="1.0" xmlns="http://www.w3.org/2000/svg"
 width="736.000000pt" height="736.000000pt" viewBox="0 0 736.000000 736.000000"
 preserveAspectRatio="xMidYMid meet">
<metadata>
Created by potrace 1.14, written by Peter Selinger 2001-2017
</metadata>
<g transform="translate(0.000000,736.000000) scale(0.100000,-0.100000)"
fill="#000000" stroke="none">
<path d="M0 5466 l0 -1524 182 -180 c101 -99 257 -253 348 -342 91 -89 356
-350 590 -580 234 -230 502 -494 597 -587 94 -92 343 -337 553 -543 537 -528
783 -770 899 -883 56 -55 101 -103 101 -108 0 -5 3 -9 8 -9 4 0 81 -72 171
-160 90 -88 166 -160 169 -160 3 0 75 69 161 154 86 85 229 226 317 313 89 87
357 350 595 585 441 433 846 831 1169 1148 271 267 894 879 1139 1120 l218
215 1 1520 c0 836 -2 1523 -4 1526 -2 4 -100 -89 -218 -205 -118 -116 -382
-375 -586 -576 -205 -201 -470 -462 -590 -580 -120 -118 -386 -379 -590 -580
-205 -201 -466 -457 -580 -570 -793 -781 -1028 -1010 -1035 -1010 -2 0 -107
101 -232 224 -125 124 -311 306 -413 406 -102 100 -387 381 -634 623 -247 243
-529 521 -626 617 -235 231 -915 899 -1143 1123 -100 98 -266 261 -369 363
-103 101 -190 184 -193 184 -3 0 -5 -686 -5 -1524z"/>
<path d="M2 1770 l3 -1505 1310 0 1310 0 2 212 2 211 -147 146 c-81 80 -226
222 -322 316 -96 94 -345 339 -553 543 -561 552 -887 872 -887 872 0 -1 -527
518 -618 608 l-102 102 2 -1505z"/>
<path d="M6935 2994 c-148 -146 -463 -456 -700 -689 -236 -233 -502 -494 -590
-580 -88 -86 -355 -349 -594 -583 -239 -235 -440 -433 -447 -440 -11 -11 -14
-60 -14 -226 l0 -212 1313 1 1312 0 1 1498 c1 823 -1 1497 -5 1497 -3 0 -127
-120 -276 -266z"/>
</g>
</svg>
